<svg width="25" height="24" viewBox="0 0 25 24" fill="none" xmlns="http://www.w3.org/2000/svg">
<path d="M17.1465 11.512C17.1385 10.0372 17.8055 8.92403 19.1558 8.10423C18.4003 7.02323 17.259 6.42848 15.752 6.31194C14.3254 6.19942 12.7662 7.14379 12.1956 7.14379C11.5928 7.14379 10.2104 6.35213 9.12539 6.35213C6.88302 6.3883 4.5 8.1404 4.5 11.7049C4.5 12.7578 4.69289 13.8455 5.07868 14.968C5.59306 16.4428 7.44964 20.0595 9.3866 19.9993C10.3993 19.9751 11.1146 19.2799 12.4327 19.2799C13.7106 19.2799 14.3737 19.9993 15.5029 19.9993C17.4559 19.9711 19.1357 16.6839 19.626 15.2051C17.0058 13.9714 17.1465 11.5884 17.1465 11.512ZM14.872 4.91348C15.969 3.61145 15.8686 2.42597 15.8364 2C14.868 2.05626 13.7468 2.65905 13.1078 3.40249C12.4046 4.19817 11.9906 5.18272 12.0791 6.29185C13.1279 6.37222 14.0843 5.83373 14.872 4.91348Z" fill="#1E2432"/>
</svg>
