<svg width="20" height="19" viewBox="0 0 20 19" fill="none" xmlns="http://www.w3.org/2000/svg">
<path d="M8.23778 15.796C8.23712 15.9509 8.27963 16.1028 8.36053 16.2349C8.44142 16.3669 8.55752 16.4738 8.69578 16.5436L10.3593 17.3832C10.4861 17.4472 10.6272 17.4777 10.7691 17.4718C10.9111 17.4659 11.0492 17.4239 11.1703 17.3496C11.2914 17.2753 11.3915 17.1713 11.4611 17.0475C11.5307 16.9236 11.5675 16.784 11.5679 16.642L11.5901 10.8087C11.5918 10.3957 11.7469 9.99803 12.0251 9.69283L18.0695 3.05823C18.1779 2.93911 18.2494 2.79115 18.2754 2.63224C18.3014 2.47334 18.2809 2.3103 18.2162 2.16284C18.1515 2.01538 18.0455 1.88981 17.911 1.80133C17.7765 1.71284 17.6192 1.66522 17.4582 1.66423L2.45827 1.60729C2.29711 1.60673 2.13925 1.65292 2.0038 1.74026C1.86836 1.8276 1.76115 1.95234 1.69515 2.09936C1.62916 2.24639 1.60721 2.4094 1.63197 2.56865C1.65673 2.7279 1.72714 2.87655 1.83466 2.9966L7.83018 9.67691C8.10612 9.98421 8.25814 10.383 8.25676 10.796L8.23778 15.796Z" stroke="#4A4A4A" stroke-width="2" stroke-linecap="round" stroke-linejoin="round"/>
</svg>
