<svg width="25" height="24" viewBox="0 0 25 24" fill="none" xmlns="http://www.w3.org/2000/svg">
<path d="M3.52388 16.431L6.88721 13.859C6.6949 13.2749 6.59091 12.65 6.59091 12C6.59091 11.35 6.6949 10.7252 6.88721 10.141L3.52388 7.56909C2.86791 8.90275 2.5 10.4063 2.5 12C2.5 13.5937 2.86791 15.0973 3.52388 16.431Z" fill="#FBBC05"/>
<path d="M6.88725 10.141C7.66325 7.78407 9.8773 6.09091 12.5 6.09091C13.9091 6.09091 15.1819 6.59091 16.1819 7.40909L19.091 4.5C17.3182 2.95455 15.0455 2 12.5 2C8.54828 2 5.1505 4.2621 3.52393 7.56906L6.88725 10.141Z" fill="#EA4335"/>
<path d="M12.4999 21.9999C8.54707 21.9999 5.1485 19.7366 3.52246 16.4281L6.88442 13.8506C7.65795 16.2119 9.87411 17.909 12.4999 17.909C13.7848 17.909 14.9233 17.6064 15.8249 17.0374L19.0179 19.5094C17.27 21.1346 14.939 21.9999 12.4999 21.9999Z" fill="#34A853"/>
<path d="M12.5 10.1819H21.8182C21.9545 10.7728 22.0455 11.4092 22.0455 12.0001C22.0455 15.2594 20.8531 17.8033 19.0179 19.5096L15.825 17.0376C16.869 16.3787 17.5953 15.3626 17.8636 14.0455H12.5V10.1819Z" fill="#4285F4"/>
</svg>
